<?xml version="1.0" encoding="UTF-8"?>
<svg width="302px" height="149px" viewBox="0 0 302 149" version="1.1" xmlns="http://www.w3.org/2000/svg" xmlns:xlink="http://www.w3.org/1999/xlink">
    <!-- Generator: Sketch 49.2 (51160) - http://www.bohemiancoding.com/sketch -->
    <title>bird left</title>
    <desc>Created with Sketch.</desc>
    <defs></defs>
    <g id="Page-1" stroke="none" stroke-width="1" fill="none" fill-rule="evenodd">
        <g id="Assets" transform="translate(-386.000000, -397.000000)" fill="#F1BB09">
            <g id="bird-left" transform="translate(386.000000, 397.000000)">
                <path d="M25.7689291,137.095499 C24.3598942,136.570777 23.1318722,136.111806 21.5366156,135.517465 C21.6316799,139.559242 20.1197672,142.392998 17.1402185,144.308813 C13.7322295,146.500526 10.5469252,149.311076 5.66478884,148.972005 C9.07928914,146.063473 12.3310082,143.290311 9.98435311,138.184909 C7.44496501,138.616805 4.86260265,139.111875 2.26070653,139.458681 C1.53795761,139.555374 0.755305178,139.208568 0,139.064173 C0.485739365,138.367982 0.836044697,137.251497 1.4806586,137.049086 C4.05911421,136.239441 6.70268233,135.556143 9.37099321,135.13456 C11.5353332,134.792911 12.1539021,134.076092 11.4259442,131.911453 C11.0482916,130.789811 11.1173109,129.211778 11.648629,128.172648 C12.4299792,126.642317 12.3896094,125.435585 11.518404,124.084459 C9.80334031,121.427329 8.10520591,118.759885 6.40837376,116.091152 C6.09192694,115.593504 5.81975662,115.068782 5.20900123,114 C6.92015813,114.49378 8.19245668,114.629151 9.21862993,115.200285 C12.3401239,116.936896 15.4420841,118.731522 18.4073081,120.715667 C20.7005709,122.251155 22.2294127,124.168259 21.1771945,127.357846 C20.5325806,129.316207 21.4272266,131.181741 23.4834798,132.144806 C25.6465176,133.158151 26.4382857,134.738763 25.7689291,137.095499" id="Fill-3"></path>
                <path d="M193,120.282511 C196.355588,120.001022 199.181142,119.764934 202.134368,119.517172 C201.831308,116.682825 201.720401,114.120887 199.342344,112.316504 C198.377709,111.58619 197.654233,110.504338 196.908834,109.515884 C195.552155,107.719284 195.724964,106.878709 197.285403,105.875986 C197.367938,104.446489 197.440157,103.224542 197.511086,102 C198.919349,102.163445 200.450126,102.025944 201.713953,102.544817 C206.384951,104.46465 209.752145,108.073415 212.421656,112.190677 C213.432717,113.748595 213.298596,116.057583 213.739646,118.297819 C215.133724,118.851717 217.019146,119.602787 219,120.390177 C217.492436,122.260716 215.995189,123.208958 213.733198,122.961196 C207.169039,122.24515 200.586826,121.695144 194.01364,121.060821 C193.839542,121.043958 193.686077,120.819545 193,120.282511" id="Fill-9"></path>
                <path d="M247.065091,63.1935005 C249.73508,63.1935005 252.416555,63.0387766 255.072505,63.2306342 C258.711195,63.4930459 262.33074,64.0104425 265.955391,64.4411937 C266.403367,64.4944187 266.985353,64.5464059 267.252097,64.8261467 C270.4326,68.1520908 273.214902,65.3472566 276.103136,64.3285547 C280.367206,62.8221632 284.623617,61.2934915 289,60 C286.655464,64.9041275 280.751367,63.5252284 276.695332,66.3832876 C277.82995,67.1903272 278.788441,67.8698744 279.764799,68.5630373 C277.956302,71.7218797 273.263401,74.0303597 269.541753,73.5340055 C268.581986,73.4065131 267.576273,73.5352433 266.601191,73.6268398 C265.848183,73.6949183 265.104108,74.0155062 264.362587,73.9994149 C262.963778,73.9697079 261.568798,73.7766125 259.984928,73.1651438 C261.000851,72.6824054 262.05251,72.2590809 263.019934,71.6983616 C263.69126,71.3096953 264.814392,70.6214836 264.740367,70.2612864 C264.568069,69.4319665 263.95928,68.3563263 263.222864,68.0295495 C261.105506,67.0925418 258.873283,66.333776 256.615534,65.7730567 C253.674973,65.0415223 250.662939,64.5748751 247.687918,63.9745465 C247.440318,63.9237971 247.228455,63.7133727 247,63.5772157 C247.021697,63.4484854 247.042117,63.3209929 247.065091,63.1935005" id="Fill-15"></path>
                <path d="M224.343548,10.6765929 C223.226236,13.3998796 223.321897,13.3407051 225.964669,13.9009744 C229.590829,14.667725 233.36877,15.2368075 235.253914,19.2014999 C235.811294,20.3736589 237.065081,21.2235056 238,22.2206591 C237.7972,22.4800197 237.595676,22.7406394 237.392877,23 C235.932464,22.0960149 234.230988,21.4236917 233.058831,20.2402014 C230.211983,17.3645719 226.654699,16.4240749 222.847422,15.7819685 C218.996779,15.1323079 215.176748,14.5330085 211.301872,15.5251259 C210.791684,15.6560653 210.164153,15.6384388 209.786614,15.9343114 C208.096617,17.2600723 206.904053,16.5424239 205.395172,14.5934421 C207.858104,13.5534815 210.192213,12.5676593 212.699786,11.5088132 C211.480437,7.95078826 210.094002,4.71003941 205.85179,3.56809722 C203.169478,2.84415371 200.613437,1.66569958 198,0.691208671 C198.024234,0.460805781 198.049743,0.23040289 198.075253,0 C199.719333,0.107017736 201.401677,0.0377709656 203.001116,0.363860302 C205.689806,0.909021239 208.350435,1.62037443 210.975352,2.4173418 C213.87832,3.3011824 215.574695,5.58003065 216.929243,8.07165535 C217.538918,9.19471206 218.109053,9.64796365 219.526099,9.6341143 C221.111508,9.61900591 222.704569,10.2913291 224.343548,10.6765929" id="Fill-17"></path>
                <path d="M127.334058,17.5283626 C126.166547,16.9527397 123.738331,16.498165 123.460044,15.4679673 C122.805098,13.0534415 122.973365,10.3427339 123.210233,7.79041916 C123.36685,6.12922542 124.230187,4.53370678 125.256613,3 C125.836486,5.16985384 126.354229,7.35902389 127.009174,9.50698603 C128.202573,13.4294637 132.866146,14.7069088 136.011437,12.078617 C137.520658,10.8179126 139.164494,9.71431331 141.125446,8.25787135 C141.125446,9.10005795 141.263943,9.53660421 141.103442,9.73620501 C139.849209,11.29953 138.613097,12.8898976 137.221662,14.3283111 C135.803045,15.7937673 135.808222,16.6694353 137.769175,17.2296053 C139.521736,17.7318267 141.407617,17.796214 143.240428,17.9983903 C143.965269,18.0782306 144.705642,18.0112678 146,18.0112678 C145.210441,18.6345374 144.884263,19.0646449 144.463597,19.1947074 C141.538347,20.0948426 138.602742,20.9730861 135.642544,21.7547486 C135.018664,21.9195802 134.157915,21.8564806 133.614285,21.543558 C131.499303,20.331788 129.984904,20.9215762 128.819982,23 C128.579231,22.9806838 128.33848,22.9613676 128.09773,22.9433391 C127.859568,21.2576782 127.6227,19.573305 127.334058,17.5283626" id="Fill-24" transform="translate(134.500000, 13.000000) scale(-1, -1) translate(-134.500000, -13.000000) "></path>
                <path d="M51.7066271,82.7735299 C54.3007509,82.4157482 56.8948747,82.0592535 59.5269798,81.6963239 C59.0142321,75.3746561 53.3562822,73.2369749 50,69.243462 C54.6451148,67.832927 62.5110451,72.7633646 64.6481271,78.5599427 L79,78.5599427 C78.134026,81.1249028 76.1957129,81.5727734 74.3181699,81.7902737 C72.4646817,82.0064871 70.5694141,81.8378922 68.7728979,81.8378922 C68.4753776,83.3102024 68.2436916,84.4530446 67.9309788,86 C62.7060159,82.2278485 56.9948922,85.1106937 51.7939841,83.7426292 C51.7648651,83.4195961 51.7357461,83.096563 51.7066271,82.7735299" id="Fill-26"></path>
                <path d="M153.386403,70.096759 C154.304217,69.3595802 154.983219,68.8132892 156.181153,67.8488031 C153.893718,67.2208825 152.095525,66.8742703 150.422547,66.2237445 C148.879948,65.6247082 147.469019,64.7029208 146,63.9217875 C146.153614,63.6141064 146.30852,63.3064253 146.462134,63 C151.17642,64.7330609 155.890706,66.4661219 160.79346,68.26951 C163.97031,65.4865657 174.268933,65.5405669 179,65.9524828 C174.447074,67.8701524 168.524527,66.6344046 164.766781,71.4078573 C166.385542,72.2078282 167.63253,72.8244462 168.880809,73.4398085 C168.848537,73.601812 168.814974,73.7650713 168.782702,73.9270749 C167.311102,73.9270749 165.83821,73.9597267 164.370482,73.9132606 C163.603701,73.8906555 162.747849,73.4548785 162.093373,73.6696274 C158.072289,74.9895166 156.02883,72.0583831 153.386403,70.096759" id="Fill-28"></path>
                <path d="M132,139 C131.155096,138.582673 130.160269,138.327501 129.488157,137.721622 C124.024866,132.805463 117.768763,132.939963 110.854524,134.589158 C110.652509,134.410662 110.163354,133.976995 109.395952,133.29821 C111.272529,132.48744 112.89627,131.786029 114.625465,131.039366 C113.783102,128.250064 112.563391,126.041501 109.454397,125.269698 C107.67184,124.827231 105.993466,123.968694 104,123.194377 C108.79499,122.23905 115.334422,124.934076 117.573101,128.454957 C117.933932,129.023125 118.76359,129.388914 119.45476,129.634031 C120.430529,129.978451 121.478719,130.123007 122.703512,130.400806 C122.068246,132.026118 122.50785,132.713701 124.173518,132.823061 C128.019421,133.076977 130.424539,135.447694 132,139" id="Fill-30"></path>
                <path d="M302,15.7201982 C299.599396,16.6696052 297.20005,17.6190122 294.04454,18.8663906 C294.934071,19.523858 295.488928,19.9340211 296.016105,20.3224697 C293.10468,24.0296206 288.889784,22.9064974 284.804479,22.6000814 C285.643684,22.1368384 286.482889,21.6735953 287.5385,21.089716 C284.854806,17.4730424 280.438601,18.6504518 277,17.1690391 C281.221188,16.2654739 288.11852,17.2281509 290.707851,18.9460105 C292.554857,18.1630815 294.287368,17.3415489 296.085304,16.6901133 C297.884499,16.0386778 299.750377,15.5561329 301.587318,15 C301.725717,15.2400661 301.862859,15.4801321 302,15.7201982" id="Fill-40"></path>
                <path d="M90.503237,46.0023206 C91.5935237,46.836351 92.7076761,47.6421959 93.771585,48.5120985 C96.3277295,50.6029396 99.6764673,49.6958835 100.742888,46.5480916 C101.249093,45.0581112 101.609591,43.5181658 102.036662,42 C103.672092,43.7782398 104.707111,49.3743142 103.423386,51.1448671 C102.755146,52.0647346 101.369678,52.4465181 100.368573,53.0371294 C100.275623,54.1542945 100.173879,55.3777952 100.127404,55.93894 C98.2219143,55.93894 96.8929703,55.7928886 95.6079896,55.9760935 C93.9725595,56.2092632 88.5738816,54.6936597 87,53.3100149 C88.8514777,53.1075928 90.6765775,53.0653148 92.4263118,52.6732821 C94.1848388,52.2812494 94.2551799,51.530494 93.0531011,50.228843 C91.971607,49.0578695 91.0257707,47.7562185 90.0208981,46.5122194 C90.1816777,46.3418261 90.3424573,46.1714328 90.503237,46.0023206" id="Fill-34"></path>
            </g>
        </g>
    </g>
</svg>