<?xml version="1.0" encoding="UTF-8"?>
<svg width="303px" height="184px" viewBox="0 0 303 184" version="1.1" xmlns="http://www.w3.org/2000/svg" xmlns:xlink="http://www.w3.org/1999/xlink">
    <!-- Generator: Sketch 49.2 (51160) - http://www.bohemiancoding.com/sketch -->
    <title>bird right</title>
    <desc>Created with Sketch.</desc>
    <defs></defs>
    <g id="Page-1" stroke="none" stroke-width="1" fill="none" fill-rule="evenodd">
        <g id="Assets" transform="translate(-30.000000, -397.000000)" fill="#F1BB09">
            <g id="bird-right" transform="translate(30.000000, 397.000000)">
                <path d="M39,172.8872 C42.1995789,171.3786 45.3978947,169.867467 48.4863158,168.4108 C47.9229474,163.560733 44.4922105,161.1414 40.6585263,159.045067 C40.7343158,158.806933 40.8101053,158.567533 40.8858947,158.3294 C42.5090526,158.183733 44.1309474,158.038067 45.9423158,157.875933 C45.6783158,157.418667 45.4256842,156.979133 45.1717895,156.540867 C45.2741053,156.361 45.3776842,156.181133 45.48,156 C48.6833684,157.411067 51.9284211,158.7398 55.0522105,160.310467 C55.608,160.5904 55.7633684,161.858333 55.9149474,162.7032 C56.0564211,163.4898 55.9452632,164.322 55.9452632,165.136467 C58.0016842,164.817267 59.8661053,164.525933 61.9452632,164.2042 C61.0547368,166.8414 59.6703158,168.229667 57.2071579,168.903533 C52.2606316,170.260133 47.4164211,171.9904 42.5002105,173.471133 C41.4846316,173.7764 40.3427368,173.664933 39.2589474,173.747267 C39.1730526,173.459733 39.0858947,173.174733 39,172.8872" id="Fill-21" transform="translate(50.472632, 164.873633) scale(-1, 1) translate(-50.472632, -164.873633) "></path>
                <path d="M275.568,170.218107 C274.937578,167.986951 275.721211,166.42085 277.760666,165.407492 C279.82775,164.382775 280.595057,162.56302 279.969657,160.506015 C279.194815,157.956843 280.041239,156.094181 281.972694,154.793094 C285.335786,152.526602 288.847065,150.477169 292.349553,148.428998 C293.006348,148.046622 293.913052,148.094577 295.342178,147.821992 C294.686638,148.904759 294.340031,149.485264 293.984634,150.059458 C292.364623,152.683086 290.720752,155.295356 289.135904,157.940437 C288.835763,158.438914 288.459016,159.201142 288.633575,159.626424 C289.605582,161.997659 290.195818,164.315891 289.06809,166.825942 C288.986461,167.010189 289.829118,167.888517 290.350284,168.023548 C292.164947,168.492999 294.041146,168.715105 295.8646,169.153007 C297.090282,169.449569 298.337314,169.823111 299.431135,170.423807 C299.920906,170.691344 300.05779,171.60627 300.35542,172.225895 C299.776486,172.391213 299.167412,172.767279 298.623641,172.685251 C296.037903,172.302875 293.468491,171.798089 290.870195,171.332423 C288.535621,176.319714 291.607362,179.048085 294.90264,181.742382 C288.742832,182.662356 280.023658,175.440123 279.623051,168.804705 C278.254204,169.281728 277.013452,169.714582 275.568,170.218107" id="Fill-1" transform="translate(287.855420, 164.821992) rotate(27.000000) translate(-287.855420, -164.821992) "></path>
                <path d="M44.8278587,39.9679051 C40.225331,38.7575414 34.640711,41.2644517 31,35.3571164 L50.2046554,35.3571164 C50.9383733,30.7235146 53.88465,28.0302969 57.7559943,26.2445352 C61.2965952,24.6121284 64.8878848,23.0557654 69,23 C64.9297029,28.4916293 57.349218,31.1582316 56.5787508,39.3468808 C59.8709774,40.4913398 63.8804482,39.0617165 67.1650715,41.4482242 C64.2327342,43.067957 61.3853003,42.4076434 58.5201254,42.3227279 C55.2975956,42.2276731 52.0598593,42.6788663 48.828459,42.8981259 C48.681462,42.9082651 48.5319305,42.9703675 48.3950712,43.0350047 C45.1193184,44.5786937 45.1205856,44.5799611 44.9343049,40.7232734 C44.9228999,40.501479 44.8734785,40.2822194 44.8278587,39.9679051" id="Fill-5"></path>
                <path d="M149.806307,90.0777787 C154.031169,90.3154637 158.430329,90.5621421 162.82949,90.8088205 C162.885064,91.137725 162.943163,91.4666295 163,91.7942493 C161.754645,92.2747583 160.540865,93.0340652 159.257619,93.1856696 C154.988551,93.6905895 150.694223,93.9925136 146.407472,94.3432594 C143.926866,94.5449704 141.427314,94.5732357 138.96439,94.8970011 C136.953634,95.1616664 135.242218,95.0126316 133.860455,93.2871675 C133.463861,92.7899564 132.735088,92.5664041 132,91.5719818 C134.313885,90.9861206 136.627771,90.3989746 139.36351,89.7051916 C139.139953,89.0538064 138.905028,87.9861515 138.421284,87.052114 C137.439904,85.1532042 137.614203,83.6255968 139.225839,82.1236851 C141.562459,79.9485469 143.746252,77.6063868 146.031087,75.3734334 C146.576719,74.8389635 147.262549,74.4535285 147.885227,74 C148.054474,74.1580284 148.223721,74.3160567 148.394231,74.4740851 C147.9408,75.2411007 147.488633,76.0081164 146.992259,76.8483647 C149.341509,75.9425924 151.583401,75.0766484 153.826556,74.2107045 C154.075375,74.4137002 154.32293,74.6154112 154.570486,74.818407 C151.422995,79.4230705 147.868807,83.9082491 149.806307,90.0777787" id="Fill-7"></path>
                <path d="M217.312669,155 C209.98034,152.939021 202.99017,150.973843 196,149.008666 C196.051957,148.698573 196.102648,148.388481 196.153338,148.078389 C199.373429,146.688016 202.577046,149.824233 205.866836,148.669581 C205.344727,144.446781 202.883721,141.402583 200.340343,138.41763 C199.119978,136.984399 197.6563,135.730164 196.608282,134.188527 C196.079837,133.412036 196.234442,132.175449 196.079837,131.148111 C197.059424,131.117858 198.112512,130.849363 198.999589,131.119118 C200.041271,131.436774 201.053807,132.092253 201.876254,132.825886 C204.902456,135.522176 207.985683,138.179389 210.747029,141.129046 C211.85841,142.316472 212.494571,144.16316 212.813919,145.811943 C213.292941,148.285117 214.775628,149.477586 217.007261,149.314976 C222.238483,148.935554 227.171901,150.371307 232.19276,151.334357 C232.31695,151.358307 232.414529,151.525959 233,152.059166 C231.792307,152.428504 230.8406,153.018435 229.944652,152.941542 C226.131486,152.617584 222.334795,152.095722 218.663561,151.662097 C218.18454,152.847002 217.758742,153.89829 217.312669,155" id="Fill-11" transform="translate(214.500000, 143.000000) scale(-1, 1) translate(-214.500000, -143.000000) "></path>
                <path d="M199.996604,67.2607789 C195.791746,65.7568779 191.711269,64.3343399 187.670137,62.7950067 C187.312223,62.658527 187.217033,61.7858445 187,61.2543612 C187.135804,61.0233956 187.271609,60.7937423 187.407413,60.5627767 C192.12249,62.1178575 196.888334,63.5325218 201.536143,65.2778868 C204.629182,66.4405886 205.737193,66.4497747 207.729837,63.6598153 C209.705981,60.8908528 212.635293,59.6415389 215.492261,58.5483893 C218.735066,57.3095738 222.203789,56.6193017 225.628089,56.0274523 C226.640911,55.8542281 228.469827,56.526128 228.820126,57.3292584 C229.557531,59.0103205 227.868227,59.6651604 226.639641,60.2596344 C224.583538,61.2543612 222.498243,62.1847851 220.433255,63.1624519 C217.347831,64.6243591 214.646975,66.5810052 212.713984,69.7161006 C215.248575,72.1386148 219.376012,70.5822216 222.390361,73.8091784 C220.888898,73.8905413 220.02965,74.0926362 219.226247,73.9509073 C216.609157,73.4876638 214.022528,72.8301992 211.400362,72.3879526 C210.156546,72.1792962 208.858155,72.3446466 207.592763,72.2370376 C206.477137,72.143864 205.36151,71.9627659 204.26746,71.7147404 C203.533863,71.5480777 202.858649,71.0887711 202.123782,70.9470423 C199.219854,70.3840636 199.143702,70.2922023 199.996604,67.2607789" id="Fill-13"></path>
                <path d="M155,0.663348596 C152.530944,1.60815508 150.131329,2.83945949 147.578685,3.43537517 C143.077801,4.48714088 141.389326,7.7481239 140.081498,11.6368557 C142.551841,12.6873481 144.933451,13.7009141 147.609548,14.8405392 C146.517762,15.8286387 145.859347,16.427101 145.184215,17.0382966 C140.572738,14.8685523 135.863527,14.6419006 131.014146,15.8897582 C129.110915,16.379988 127.053368,16.4296476 125.259444,17.1503491 C123.317634,17.9308967 121.588008,19.2373273 119.792799,20.3591258 C118.25221,21.3217588 116.750201,22.3480581 115,23 C117.672239,18.175375 121.033757,14.3617693 127.041794,13.9925053 C129.396399,13.8486197 129.51085,13.4908156 128.21331,10.8270216 C130.06253,10.4310178 131.816589,10.1279666 133.523067,9.65683673 C134.276644,9.4492849 135.246263,9.07365429 135.5819,8.47901194 C137.604726,4.90097121 140.195949,2.32121658 144.602958,1.81570691 C146.945989,1.5457622 149.200289,0.58694915 151.531747,0.109452612 C152.610674,-0.112105782 153.773188,0.0712528887 154.898409,0.0712528887 C154.931844,0.268618125 154.966565,0.46598336 155,0.663348596" id="Fill-19"></path>
                <path d="M0.406678986,69 C2.39889124,69.8811288 4.4876254,70.5922608 6.35886352,71.6823171 C8.88258976,73.1538931 11.4307682,74.6929488 13.625033,76.6044403 C17.1371436,79.6630864 20.8332893,80.5597875 25.3711061,79.4282052 C29.8175488,78.3186836 34.406844,77.7905254 39,77.3298469 C34.2974525,79.9330051 28.8690602,79.4645404 23.5204593,80.9010789 C24.0172254,81.8925111 24.4033131,82.6607412 24.8859227,83.6262196 C24.0995908,83.7637744 23.3711721,84.0038463 22.6453273,83.9999532 C20.5462975,83.9869764 18.4305372,84.005144 16.3585335,83.7352253 C15.6223931,83.6404942 14.8167569,82.872264 14.3457299,82.1974673 C13.561972,81.0749688 13.3097281,79.4100376 12.3252046,78.6249375 C9.38321674,76.2774235 6.19027191,74.2517355 3.10157075,72.0910882 C2.05656019,71.3591933 1.03342793,70.5987492 0,69.8512821 C0.135130676,69.5670888 0.27154831,69.2841932 0.406678986,69" id="Fill-32"></path>
                <path d="M72.7118353,89.3826258 C73.7983793,90.2720256 74.9012528,91.1404056 75.9676989,92.0534527 C78.4146211,94.1501765 81.7332908,93.2279333 82.780895,90.0815338 C83.3298196,88.4341079 83.7217291,86.7288776 84.1839813,85.049922 L84.7818946,85 C85.1738041,87.2648822 85.6498737,89.5179407 85.9387813,91.797274 C86.2992878,94.6507102 85.0569849,96.2994499 82.4919874,96.1615075 C82.3764243,97.7905411 82.2910082,99.0031201 82.1503227,101 C80.4558165,98.9216684 79.0326323,99.4274571 77.452433,99.4156335 C74.6136013,99.3946137 71.7823063,98.2529764 69,97.1468101 C71.4305926,96.4150587 74.0998481,97.2913211 76.1724465,95.0514 C74.7655919,93.3028163 73.4466656,91.6632728 72.1277394,90.0224156 C72.322438,89.8095903 72.5171366,89.5954512 72.7118353,89.3826258" id="Fill-36" transform="translate(77.500000, 93.000000) scale(-1, -1) translate(-77.500000, -93.000000) "></path>
                <path d="M136,146.612901 C134.832643,147.393296 133.657588,148.163765 132.497928,148.957807 C129.375567,151.091795 126.196763,153.158786 123.18729,155.434213 C122.424018,156.011134 122.00967,157.22577 121.792875,158.219564 C121.499112,159.563232 121.020624,160.091766 119.482534,159.946605 C117.634004,159.771668 115.74699,159.993751 113.876653,159.999955 C113.006907,160.002436 112.135879,159.90194 111.144267,159.841146 C111.657391,158.87837 112.029406,158.181102 112.569469,157.168699 C107.208605,156.250587 102.10302,155.37466 97,154.499973 C97.0487468,154.204688 97.0974936,153.910644 97.1462404,153.616601 C98.9485889,153.821315 100.758634,153.985086 102.554569,154.24315 C104.451845,154.516102 106.32988,154.930492 108.229722,155.189797 C110.944148,155.559523 113.731695,156.320066 116.373002,156.011134 C118.403691,155.775403 120.289422,154.194763 122.185415,153.125287 C126.216006,150.851101 130.20298,148.506195 134.234853,146.23325 C134.644069,146.003722 135.231597,146.070719 135.737024,146 C135.824255,146.203473 135.912769,146.408187 136,146.612901" id="Fill-38"></path>
            </g>
        </g>
    </g>
</svg>