<?xml version="1.0" encoding="UTF-8"?>
<svg width="167px" height="90px" viewBox="0 0 167 90" version="1.1" xmlns="http://www.w3.org/2000/svg" xmlns:xlink="http://www.w3.org/1999/xlink">
    <!-- Generator: Sketch 49.2 (51160) - http://www.bohemiancoding.com/sketch -->
    <title>hangzhou-word</title>
    <desc>Created with Sketch.</desc>
    <defs>
        <polygon id="path-1" points="0.121973733 0.220962323 16.8992946 0.220962323 16.8992946 16.5827793 0.121973733 16.5827793"></polygon>
        <polygon id="path-3" points="0.0144248226 0.115571011 20.2702346 0.115571011 20.2702346 16.535455 0.0144248226 16.535455"></polygon>
        <polygon id="path-5" points="0 0.291823558 17.086778 0.291823558 17.086778 16.5183306 0 16.5183306"></polygon>
    </defs>
    <g id="Page-1" stroke="none" stroke-width="1" fill="none" fill-rule="evenodd">
        <g id="Assets" transform="translate(-318.000000, -231.000000)">
            <g id="hangzhou-word" transform="translate(318.000000, 231.000000)">
                <polygon id="Fill-1" fill="#000000" points="27.1152655 28.9830508 27.1152655 37.652035 13.6636364 37.652035 13.6636364 42.4947252 27.0797481 42.4947252 27.0797481 90 34.9598787 90 34.9598787 42.23648 44.7863636 42.23648 44.7863636 37.3629899 34.8651656 37.3629899 34.8651656 28.9830508"></polygon>
                <g id="Group-45">
                    <path d="M96.4242701,89.7728623 C100.460794,84.7147539 102.957221,79.2009386 103.662011,72.9212494 C103.896941,70.7954123 103.989489,68.6481022 103.991862,66.5079497 C104.022712,53.8936955 104.0061,41.2794413 104.0061,28.4218252 L110.961451,28.4218252 C111.091967,28.7486935 111.336389,29.0779478 111.334016,29.4000443 C111.205873,43.6963581 111.369612,58.0093733 110.7811,72.2865999 C110.453622,80.1910872 105.306521,85.4352958 98.6074575,89.1048103 C97.9548743,89.4626953 97.1575363,89.5557454 96.4242701,89.7728623" id="Fill-2" fill="#000000"></path>
                    <path d="M152.387432,89.7215654 L145.332415,89.7215654 L145.332415,28.6950108 C145.740576,28.4778939 145.93991,28.28225 146.141618,28.2774782 C153.986855,28.0937639 152.415909,27.7549661 152.444385,34.3138057 C152.520322,51.3586765 152.418282,68.4011615 152.387432,85.4460323 C152.385059,86.7344184 152.387432,88.0228045 152.387432,89.7215654" id="Fill-4" fill="#000000"></path>
                    <path d="M124.652646,30.5610233 L131.826315,30.5610233 L131.826315,86.6940967 C130.438093,86.7656737 129.403452,86.8372507 128.366438,86.8611097 C127.208399,86.8849687 126.050361,86.8682674 124.652646,86.8682674 L124.652646,30.5610233 Z" id="Fill-6" fill="#000000"></path>
                    <path d="M81.5766971,85.0943507 L81.5766971,89.8709228 C78.3707338,89.8709228 75.288168,90.2168783 72.3218807,89.7754868 C69.2488071,89.3150081 68.4206197,86.6809743 68.4158737,83.844139 C68.4063815,74.7896478 68.4135006,65.7375425 68.4135006,56.6854373 L68.4135006,52.4695517 L59.4790433,52.4695517 L59.4790433,47.6929795 C62.9911275,47.6929795 66.5174498,47.4949498 70.0152958,47.7502411 C73.7955323,48.0222337 75.442415,49.9929873 75.449534,53.8533738 C75.4637722,62.5499799 75.5325901,71.246586 75.2810489,79.9360345 C75.1766356,83.4385359 75.7936234,85.5023396 79.8087898,84.8199721 C80.2383082,84.7460092 80.7152872,84.9488107 81.5766971,85.0943507" id="Fill-8" fill="#000000"></path>
                    <path d="M7.48904482,89.5493035 C13.0205773,83.8255289 15.5644653,77.2738471 15.694982,69.7964359 C15.7970222,63.8507727 15.8634671,57.9027235 15.934658,51.9570603 C15.9583883,49.8240655 15.939404,47.686299 15.939404,45.2192782 L23.6636161,45.2192782 C21.9574077,57.0652726 25.7732396,69.2715379 19.8121887,80.5926342 C17.930376,84.1667127 11.717784,88.8573924 7.48904482,89.5493035" id="Fill-10" fill="#000000"></path>
                    <path d="M43.4691603,89.4746248 C53.789467,76.9868233 49.64853,62.0582459 50.8350449,47.5328856 L54.2142394,47.5328856 L57.3276545,47.5328856 C57.6219102,48.0124515 57.9565074,48.3035314 57.9541344,48.5946112 C57.9114198,56.3368573 58.0893971,64.0934187 57.6907281,71.8213494 C57.2232412,80.8472097 51.23846,85.8695296 43.4691603,89.4746248" id="Fill-12" fill="#000000"></path>
                    <path d="M81.2708135,36.7447994 C81.3633617,38.4936642 81.4369256,39.860785 81.5365929,41.7384884 C78.444535,41.7384884 75.6538519,41.7456461 72.8631688,41.7384884 C64.8233438,41.7194012 56.7882648,41.6788409 48.7508128,41.6907704 C47.096811,41.6931563 45.7346919,41.7194012 45.665874,39.3931486 C45.5923101,36.9380573 46.9164607,36.7471853 48.7935273,36.7925174 C52.0730546,36.8688662 55.3549548,36.8116046 58.950095,36.8116046 L58.950095,28.4013065 L66.4892107,28.4013065 C66.6078622,31.0067095 66.7288867,33.6789177 66.8665225,36.7447994 L81.2708135,36.7447994 Z" id="Fill-14" fill="#000000"></path>
                    <path d="M93.9655739,41.1391503 C95.5222814,41.1391503 96.8820275,40.8719295 98.0543042,41.2298145 C98.8801186,41.4827199 100.045276,42.5826199 100.045276,43.3079336 C100.050022,51.1551593 100.04053,59.0143144 99.6442342,66.8472247 C99.4354076,70.9724461 95.5934723,75.2074189 91.350495,76.8656195 C95.5460117,65.2963896 92.6058278,53.3311002 93.9655739,41.1391503" id="Fill-16" fill="#000000"></path>
                    <path d="M71.4936933,10.1272198 L71.4936933,6.83706351 L80.6630806,6.83706351 C80.6630806,9.54983201 80.7959702,12.2339697 80.5657864,14.8847048 C80.5112067,15.5145824 79.2606199,16.5023451 78.5297268,16.5309759 C74.7494903,16.6812876 70.9573886,16.576308 67.172406,16.5572208 C66.935103,16.5548349 66.693054,16.552449 66.4652431,16.4975733 C63.3019944,15.7221558 62.0371695,12.2244261 62.6470381,5.71569043 C62.9341748,2.71422801 64.0803482,0.397518936 67.5948053,0.380817634 C71.3821609,0.364116333 75.1695165,0.364116333 78.9568721,0.385589435 C79.4030017,0.390361235 79.8491313,0.581233249 80.2762767,0.681441057 C81.1519247,3.23196834 80.4115394,4.32471062 77.7252697,4.21257332 C74.7732205,4.09327831 71.787949,4.0121577 68.8643763,4.33902602 C67.9412677,4.44400563 66.5388071,5.85884444 66.458124,6.7726442 C66.292012,8.68613614 66.455751,12.1480773 67.1913903,12.346107 C69.8301994,13.0594912 72.7608913,12.7111497 75.5824237,12.6729753 C75.8220997,12.6682035 76.2943327,11.9309604 76.2302609,11.6255652 C76.1329666,11.1579287 75.7176864,10.4755613 75.3380016,10.4015984 C74.2013204,10.1820956 73.0148054,10.2131123 71.4936933,10.1272198" id="Fill-18" fill="#000000"></path>
                    <path d="M39.6383783,16.4250419 L36.1595166,16.4250419 C36.0171348,14.8026298 35.8818721,13.2875832 35.6967757,11.1975347 C33.1267844,11.1975347 30.5615392,11.3502323 28.0342624,11.1044846 C27.2464165,11.0257499 26.5629839,9.86143057 25.8344638,9.19576442 C26.5724761,8.66370868 27.282012,7.73320761 28.0603658,7.67117421 C30.5093325,7.47075859 32.9844026,7.5972113 35.48083,7.5972113 C36.2330805,5.27095863 36.1286672,3.94916994 33.328492,4.09948165 C30.2744026,4.26410876 27.206075,4.13765605 23.7533166,4.13765605 L23.7533166,16.0003517 C20.7182115,17.1598992 19.4296563,16.5610383 19.6266178,13.4044923 C19.7903568,10.7943175 19.5222045,8.15551194 19.6503481,5.54056535 C19.8306983,1.82571878 21.2806196,0.401336376 24.9611888,0.284427267 C28.160033,0.18660536 31.3707424,0.377477374 34.5648405,0.260568266 C37.948781,0.134115556 39.379718,2.1406576 39.5790525,5.02759681 C39.8305937,8.68518178 39.6383783,12.3761694 39.6383783,16.4250419" id="Fill-20" fill="#000000"></path>
                    <path d="M133.514489,13.0373023 L133.514489,13.0611613 C134.928815,13.0611613 136.371617,13.2257884 137.747974,12.9943561 C138.483613,12.8726752 139.627414,12.1139589 139.686739,11.5508865 C139.89082,9.56581754 140.308473,6.11819178 139.55385,5.78893756 C136.983859,4.67949398 133.955872,4.49100787 131.082133,4.32876665 C129.909857,4.25957555 127.961599,4.85127879 127.608018,5.68157205 C125.697729,10.1432054 127.738534,13.0468459 132.453745,13.0373023 L133.514489,13.0373023 Z M134.046048,0.425433968 C135.348841,0.425433968 136.651634,0.401574966 137.956801,0.432591668 C138.659218,0.44929297 139.39723,0.434977568 140.059305,0.642550884 C143.357817,1.67803156 144.565689,5.18291892 143.875137,11.7751611 C143.533421,15.0414584 141.473631,16.5970654 138.391065,16.7354476 C135.315619,16.8714439 132.223561,16.8642862 129.148114,16.7330617 C125.954016,16.5922936 123.932194,14.454527 123.770828,11.2788939 C123.704384,9.97142057 123.749471,8.65917547 123.75659,7.34693037 C123.780321,2.1766847 125.467545,0.444521169 130.491249,0.425433968 C131.675391,0.420662167 132.861906,0.425433968 134.046048,0.425433968 Z" id="Fill-22" fill="#000000"></path>
                    <path d="M44.7899959,76.7623101 L38.5892618,76.7623101 L38.5892618,52.7005068 C34.7402074,52.57644 35.0581934,50.3074489 35.6680621,47.866673 C42.4596734,46.6951961 44.7947348,48.6230034 44.7899887,55.2820508 C44.7852427,62.2942114 44.7899887,69.3039861 44.7899959,76.7623101" id="Fill-24" fill="#000000"></path>
                    <path d="M100.062599,0.637301903 C101.372512,4.6861745 98.1451913,5.54748446 96.1969338,7.22954409 C94.2581684,8.90444601 92.312284,10.5745761 89.5334661,12.9700199 C93.1499635,12.9700199 95.8077569,13.0582982 98.4584312,12.9461609 C101.163685,12.8292518 101.377258,14.1677418 100.655857,16.458206 L83.0598407,16.458206 C83.7622575,9.90652408 90.3023277,8.89967421 93.5415134,4.39986648 L83.4608827,4.39986648 C83.3683346,2.93015197 83.3042628,1.9233021 83.2212067,0.637301903 L100.062599,0.637301903 Z" id="Fill-26" fill="#000000"></path>
                    <path d="M107.686907,10.5908003 C107.558763,12.5376948 107.444858,14.2913314 107.307222,16.4100108 C106.15393,16.5054468 105.055217,16.5937251 103.650383,16.7058624 L103.650383,0.963693047 C107.14111,0.166802389 107.14111,0.166802389 107.658431,6.35344154 L116.929858,6.35344154 C116.929858,5.02449514 116.718658,3.69316285 117.008168,2.48589736 C117.190891,1.7104798 118.118746,1.11639066 118.712003,0.443566809 C119.435778,1.11161886 120.74569,1.7486542 120.786032,2.45488066 C121.006723,6.36775694 121.044692,10.309264 120.84773,14.2221403 C120.802643,15.0882221 119.563921,15.8898845 118.875743,16.7177919 C118.237398,15.8350088 117.359376,15.0309605 117.031898,14.0408119 C116.716285,13.0888377 116.96308,11.9436057 116.96308,10.5908003 L107.686907,10.5908003 Z" id="Fill-28" fill="#000000"></path>
                    <g id="Group-32" transform="translate(42.714537, 0.000000)">
                        <mask id="mask-2" fill="white">
                            <use xlink:href="#path-1"></use>
                        </mask>
                        <g id="Clip-31"></g>
                        <path d="M3.57947819,6.57391008 C3.57947819,9.13637145 3.4608267,11.3504908 3.61032757,13.5479088 C3.78118572,16.0817393 2.94113316,17.1553963 0.121973733,16.2726116 L0.121973733,0.220246553 C6.94206145,0.458836997 8.14993363,7.77879182 13.3397499,10.2553606 L13.3397499,0.575746314 C14.701869,0.499397372 15.6795573,0.44452157 16.8992946,0.372944437 L16.8992946,16.5828086 C10.0554766,16.5994805 8.65064292,9.4870994 3.57947819,6.57391008" id="Fill-30" fill="#000000" mask="url(#mask-2)"></path>
                    </g>
                    <g id="Group-35" transform="translate(146.406634, 0.332103)">
                        <mask id="mask-4" fill="white">
                            <use xlink:href="#path-3"></use>
                        </mask>
                        <g id="Clip-34"></g>
                        <path d="M4.23353639,11.8827792 C4.93120716,12.4577811 5.0142632,12.5890056 5.11155742,12.5985492 C16.4000603,13.8845494 16.3953142,13.8821635 16.5661724,2.94758303 C16.5780375,2.13637697 16.6658396,1.32517091 16.7275384,0.392283939 C17.3089307,0.282532531 17.7503143,0.129834919 18.1916978,0.13460672 C18.7517329,0.13937852 19.3141409,0.27060303 20.192162,0.392283939 C20.192162,4.20256652 20.4081077,7.87685279 20.1233441,11.5129647 C19.8836681,14.5478297 18.1561024,16.5567576 14.7911461,16.5352845 C11.7156994,16.5161973 8.64025277,16.5066537 5.56480612,16.5090396 C2.22358013,16.5114255 0.434315641,14.5287425 0.17565539,11.505807 C-0.137584547,7.87208099 0.102091465,4.19302292 0.102091465,0.564068751 C3.43619837,-0.612180035 4.45185513,0.566454651 4.27150487,3.61563507 C4.10064672,6.45008448 4.23353639,9.30362109 4.23353639,11.8827792" id="Fill-33" fill="#000000" mask="url(#mask-4)"></path>
                    </g>
                    <g id="Group-38">
                        <mask id="mask-6" fill="white">
                            <use xlink:href="#path-5"></use>
                        </mask>
                        <g id="Clip-37"></g>
                        <path d="M13.5189136,16.5183306 C13.3433094,14.3280743 13.1938085,12.471844 13.0276964,10.3531646 L4.18104125,10.3531646 C2.13786257,12.0566973 5.79470153,17.1100339 -0.000237302982,16.4228946 L-0.000237302982,0.72844329 C2.89960514,0.310910759 2.89960514,0.310910759 3.87966646,6.62638852 C5.92996423,6.62638852 8.03246865,6.64308982 10.1397191,6.61923082 C11.0580817,6.60730132 11.9740712,6.50232171 13.2816106,6.41165751 C13.2816106,4.9705738 13.0276964,3.6177684 13.3694127,2.43674782 C13.6067157,1.60168275 14.6508488,0.99805001 15.3342814,0.291823558 C15.9133007,0.988506409 16.9669259,1.66610206 16.9906562,2.38187211 C17.1425301,6.89360934 17.0689662,11.4101184 17.0689662,16.3298445 C15.8349907,16.3942638 14.7600082,16.4539113 13.5189136,16.5183306" id="Fill-36" fill="#000000" mask="url(#mask-6)"></path>
                    </g>
                    <path d="M144.114339,70.9838984 C139.40862,68.6791189 136.549119,65.4080497 136.167062,61.1778487 C135.585669,54.716831 136.017561,48.1627633 136.017561,41.6778866 C141.413831,40.6113892 141.437561,40.7235265 141.587062,45.970121 C141.779277,52.7126749 142.11862,59.4552288 142.545766,66.1858532 C142.628822,67.5338868 143.388191,68.8389742 144.114339,70.9838984" id="Fill-39" fill="#000000"></path>
                    <path d="M120.842984,41.0647102 C122.200357,51.1188936 119.160506,61.051396 123.403483,70.4613863 C119.689692,68.268744 116.225068,65.6728846 115.821653,61.1062717 C115.30196,55.2011688 115.211784,49.2292606 115.406373,43.3002987 C115.532144,39.4852443 118.712003,41.7446918 120.842984,41.0647102" id="Fill-41" fill="#000000"></path>
                    <path d="M133.514489,13.0373023 L132.453745,13.0373023 C127.738534,13.0468459 125.697729,10.1432054 127.608018,5.68157205 C127.961599,4.85127879 129.909857,4.25957555 131.082133,4.32876665 C133.955872,4.49100787 136.983859,4.67949398 139.55385,5.78893756 C140.308473,6.11819178 139.89082,9.56581754 139.686739,11.5508865 C139.627414,12.1139589 138.483613,12.8726752 137.747974,12.9943561 C136.371617,13.2257884 134.928815,13.0611613 133.514489,13.0611613 L133.514489,13.0373023 Z" id="Fill-43" fill="#FFFFFF"></path>
                </g>
            </g>
        </g>
    </g>
</svg>