<?xml version="1.0" encoding="UTF-8"?>
<svg width="397px" height="191px" viewBox="0 0 397 191" version="1.1" xmlns="http://www.w3.org/2000/svg" xmlns:xlink="http://www.w3.org/1999/xlink">
    <!-- Generator: Sketch 49.2 (51160) - http://www.bohemiancoding.com/sketch -->
    <title>hangzhou logo</title>
    <desc>Created with Sketch.</desc>
    <defs>
        <linearGradient x1="50%" y1="2.41795317%" x2="50%" y2="100%" id="linearGradient-1">
            <stop stop-color="#2E295B" offset="0%"></stop>
            <stop stop-color="#313775" offset="12.7711961%"></stop>
            <stop stop-color="#1D4880" offset="25.3313778%"></stop>
            <stop stop-color="#00738B" offset="55.2045701%"></stop>
            <stop stop-color="#1798A2" offset="88.6199422%"></stop>
            <stop stop-color="#008CAC" offset="71.2698699%"></stop>
            <stop stop-color="#619499" offset="100%"></stop>
        </linearGradient>
    </defs>
    <g id="Page-1" stroke="none" stroke-width="1" fill="none" fill-rule="evenodd">
        <g id="Assets" transform="translate(-165.000000, -20.000000)" fill="url(#linearGradient-1)">
            <path d="M283.178832,206.349891 L274.639314,206.349891 L274.639314,117.170942 C276.821798,117.170942 279.238643,116.900481 281.52366,117.331756 C282.236507,117.465768 283.037239,119.488133 283.047004,120.650383 C283.156861,135.262573 283.127566,149.874763 283.139772,164.486953 C283.149537,177.028047 283.166626,189.569141 283.178832,202.112672 C283.178832,203.4333 283.178832,204.753929 283.178832,206.349891 Z M365.534653,21.1354478 C383.868496,26.8930941 402.021687,22.7606489 419.823336,23.9789405 C423.949061,24.2615842 428.155348,24.4175255 432.244454,23.9423918 C436.150466,23.4867507 439.958827,22.1490665 443.801367,21.1622502 C444.650924,20.9429577 445.456539,20.5604142 446.967678,20 C444.128495,26.7810113 440.478815,31.9490045 435.5963,36.249574 C432.429989,39.0418985 428.62651,40.1627268 424.486138,40.1749097 C412.419002,40.2090219 400.349425,40.1432341 388.28229,40.2065853 C381.556625,40.2455706 376.691199,36.9123247 372.851101,31.8539777 C370.238956,28.4135221 367.961262,24.7172253 365.534653,21.1354478 Z M319.387563,53.8270859 C316.084542,60.5471826 312.417773,66.4632069 306.776027,70.6102717 C304.39336,72.3597385 300.914568,73.3294986 297.906938,73.4001595 C285.119632,73.6925495 272.32256,73.5999594 259.530371,73.4683839 C253.837359,73.4099059 249.184322,70.8758592 245.815387,66.2853363 C242.942027,62.3648738 240.254202,58.3103992 236.9878,53.6004837 C253.971628,59.6261542 268.628938,61.229426 278.472088,43.5227752 C288.356739,60.9808945 302.896869,59.972149 319.387563,53.8270859 Z M165.559048,167.396233 C166.574611,167.907916 167.839182,168.185686 168.566677,168.965393 C177.706745,178.772641 189.161125,182.868537 202.336592,182.856354 C213.053712,182.846608 223.770832,182.853918 234.83217,182.853918 L234.83217,117.326883 L243.415631,117.326883 C243.415631,122.823815 243.393659,128.145313 243.420513,133.469248 C243.532811,156.845828 243.671963,180.219971 243.774496,203.596551 C243.801349,209.405366 243.383894,209.790346 237.568819,209.78791 C229.270985,209.7806 220.963386,209.446788 212.685082,209.800093 C197.820265,210.436041 186.824842,204.544382 179.332623,191.698715 C175.170279,184.566836 170.561184,177.690798 166.181569,170.680748 C165.693317,169.901041 165.38816,169.001942 165,168.158884 C165.185536,167.905479 165.373512,167.649638 165.559048,167.396233 Z M336.491013,45.3380297 C337.59202,45.8009805 338.839502,46.0690047 339.769621,46.7609944 C345.277098,50.873947 351.582866,52.3651359 358.289,52.3748823 C391.221564,52.4236139 424.156568,52.4552895 457.08669,52.3895018 C462.418396,52.3797554 467.37659,50.7764836 471.792825,47.6211083 C473.08425,46.7025164 474.666185,46.1908339 476.426331,45.9179365 C471.573111,55.5643698 466.883456,65.2741542 457.426025,71.0366737 C454.381776,72.8909136 450.23408,73.6535642 446.581959,73.6828032 C420.116287,73.8996591 393.648173,73.824125 367.18006,73.7851397 C358.542891,73.7705202 351.663428,70.1424477 346.732088,63.088539 C342.926167,57.6452119 339.347284,52.0386338 335.668309,46.5051531 C335.94173,46.1152998 336.217592,45.727883 336.491013,45.3380297 Z M349.598124,88.0220959 C345.738496,93.8041081 342.049756,99.7055128 337.982621,105.336457 C332.35064,113.138397 324.243224,115.557924 314.944474,115.511629 C290.297539,115.384926 265.648162,115.514065 240.998786,115.380053 C232.759542,115.333758 225.311265,112.984892 220.218802,105.92611 C215.914866,99.9589175 211.786699,93.8674592 207.580413,87.8320424 C207.934395,87.4592452 208.288377,87.0888845 208.639918,86.7160873 C209.743367,87.1985308 211.007938,87.4763012 211.925851,88.1950933 C216.522739,91.7866171 221.769001,93.4264377 227.520603,93.4629864 C237.886183,93.523901 248.266409,93.7553764 258.619782,93.3825792 C267.320424,93.0682599 274.55387,89.910448 277.375963,80.624629 C277.498026,80.2225928 277.969189,79.9277662 279.040901,78.7338404 C279.416855,79.5939543 279.763513,80.2201562 279.973461,80.8926532 C282.282891,88.2486982 287.748866,92.5663238 294.962782,92.8855162 C308.545938,93.4897888 322.190126,93.2266378 335.783048,92.6954627 C338.995743,92.5736335 342.120552,89.9835455 345.260009,88.477737 C346.280455,87.9904203 347.225222,87.3422892 348.204166,86.7672555 C348.668005,87.1863478 349.131844,87.6054402 349.598124,88.0220959 Z M545.814192,167.345065 C547.918556,165.807581 550.025361,164.272534 552.129725,162.739923 C546.583188,171.30695 538.050993,176.820938 530.693043,183.519105 C530.885903,183.755454 531.078762,183.989366 531.274063,184.225714 C532.968295,183.036662 534.664969,181.842736 536.359202,180.653683 C536.615534,180.946073 536.871866,181.238463 537.128198,181.528417 C533.935033,184.208658 530.944493,187.183726 527.507202,189.496044 C522.014373,193.194777 516.296948,196.584065 510.542904,199.873452 C499.374151,206.2573 487.114156,209.359071 474.419618,209.785473 C458.32929,210.328831 442.207226,209.914612 426.099809,209.890246 C425.413815,209.890246 424.727822,209.685573 424.041829,209.578363 C424.046711,209.2811 424.049153,208.983837 424.054035,208.689011 L464.632617,208.689011 C464.635058,208.260172 464.63994,207.83377 464.642382,207.407368 L422.70402,207.407368 C422.616134,205.665211 422.489189,204.1326 422.467218,202.597552 C422.332949,193.343409 422.330507,184.084392 422.047321,174.835122 C421.944789,171.526242 422.931057,169.403978 425.936245,167.773904 C431.787939,164.599036 436.58501,160.252171 440.305486,154.582242 C449.440671,140.669351 449.794654,120.962266 437.388183,106.725309 C424.87918,92.3738337 403.811128,88.0269691 386.158396,98.0583825 C378.468435,102.427176 373.007342,108.579549 369.479725,116.310828 C362.885888,130.76464 365.354,148.417686 377.496814,160.434915 C380.558151,163.466025 384.36163,165.824637 388.052811,168.124772 C390.462332,169.620834 391.844084,171.20705 391.814789,174.182118 C391.71958,184.167236 391.731786,194.157228 391.868497,204.144783 C391.907557,206.922488 391.055558,207.72656 388.248112,207.42686 C385.028093,207.085739 381.744602,207.34889 378.419609,208.11885 C382.28412,208.343016 386.146189,208.569618 390.0107,208.793784 C390.008259,209.066681 390.005817,209.342015 390.003376,209.614912 C389.014667,209.695319 388.025958,209.848824 387.034807,209.851261 C364.338436,209.861007 341.637183,209.817149 318.938371,209.904866 C315.779384,209.917049 314.141301,209.054498 314.126653,205.640845 C314.021679,176.774643 313.850791,147.910877 313.706757,119.044674 C313.706757,118.686497 313.816613,118.330756 313.933794,117.616837 L322.568521,117.616837 L322.568521,183.138998 L382.208441,183.138998 C383.172738,177.992934 382.44036,174.250342 377.401605,170.90004 C366.669837,163.765724 360.59843,153.132475 358.430593,140.491481 C356.19196,127.421648 358.823636,115.241168 366.804106,104.581116 C377.989948,89.647297 393.098891,82.9491295 411.718361,84.8594108 C430.000938,86.7331433 443.213024,96.6232349 450.895661,112.794838 C458.280465,128.328057 457.076925,144.224326 447.304571,158.592858 C443.642685,163.977707 438.000939,168.005379 433.426022,172.805448 C432.317692,173.970135 431.502312,175.683053 431.197154,177.266832 C430.816318,179.240465 431.104387,181.338363 431.104387,183.806622 C435.776953,183.806622 440.014976,183.835861 444.250558,183.801749 C455.595081,183.711595 466.951811,183.852917 478.284128,183.426515 C496.708298,182.736962 513.853249,177.337493 529.208759,167.262221 C539.237444,160.683446 548.519105,152.974097 558.135218,145.766683 C559.197165,144.972357 560.246906,144.158538 561.501712,143.198525 C561.599363,143.846656 561.809311,144.280368 561.6726,144.467985 C556.492252,151.658342 553.919167,160.705376 546.221882,166.114591 C545.941137,166.311954 545.982639,166.969831 545.875223,167.413289 L545.814192,167.345065 Z" id="hangzhou-logo"></path>
        </g>
    </g>
</svg>