<?xml version="1.0" encoding="UTF-8" standalone="no"?>
<svg width="90px" height="72px" viewBox="0 0 90 72" version="1.1" xmlns="http://www.w3.org/2000/svg" xmlns:xlink="http://www.w3.org/1999/xlink">
  
    <g id="Page-1" stroke="none" stroke-width="1" fill="none" fill-rule="evenodd">
        <g id="noun_625489_cc">
            <g id="Group">
                <path d="M5,31.47 L5.125,31.47 C5.05,31.431 4.972,31.398 4.898,31.357 L5,31.47 Z" id="Shape"></path>
                <path d="M41.607,11.146 C41.478,11.14 41.353,11.121 41.223,11.121 L36.494,11.121 L36.494,2.782 C36.494,1.772 35.668,0.946 34.659,0.946 L34.025,0.946 C33.015,0.946 32.19,1.772 32.19,2.782 L32.19,11.121 L30.168,11.121 L30.168,2.782 C30.168,1.772 29.342,0.946 28.332,0.946 L27.698,0.946 C26.688,0.946 25.863,1.772 25.863,2.782 L25.863,11.121 L9.392,11.121 C4.226,11.121 0,15.347 0,20.513 L0,23.119 C0,24.803 0.455,26.382 1.239,27.753 L4.755,35.057 L6.737,32.121 C6.975,32.192 7.215,32.257 7.461,32.308 L9.317,35.057 L11.036,32.511 L12.16,32.511 L13.879,35.057 L15.598,32.511 L16.722,32.511 L18.441,35.057 L20.16,32.511 L22.478,32.511 L22.478,33.214 C22.556,33.045 22.65,32.882 22.778,32.735 L41.607,11.146 Z M28.022,15.243 C28.797,15.243 29.431,15.877 29.431,16.652 C29.431,17.427 28.797,18.061 28.022,18.061 C27.247,18.061 26.613,17.427 26.613,16.652 C26.613,15.877 27.247,15.243 28.022,15.243 Z M5,31.47 L4.898,31.357 C4.972,31.398 5.05,31.431 5.125,31.47 L5,31.47 Z M11.164,22.152 L0.857,22.152 L0.857,21.369 C0.857,16.203 5.083,11.977 10.249,11.977 L11.165,11.977 L11.165,22.152 L11.164,22.152 Z M21.447,16.808 C21.447,16.033 22.081,15.399 22.856,15.399 C23.631,15.399 24.265,16.033 24.265,16.808 C24.265,17.583 23.631,18.217 22.856,18.217 C22.081,18.217 21.447,17.583 21.447,16.808 Z" id="Shape" fill="#000000" fill-rule="nonzero"></path>
                <path d="M89.692,51.237 L89.474,50.409 L85.546,51.445 L85.764,52.273 C86.529,55.173 84.803,58.525 81.661,60.244 C80.222,61.03 78.658,61.36 77.185,61.297 C77.487,60.473 77.66,59.586 77.66,58.659 L77.66,18.894 C77.66,14.647 74.205,11.193 69.958,11.193 L45.436,11.193 C45.865,11.92 45.814,12.871 45.231,13.54 L26.023,35.564 C25.295,36.399 24.016,36.486 23.181,35.758 L22.973,35.576 C22.757,35.388 22.594,35.163 22.479,34.918 L22.479,58.657 C22.479,62.904 25.941,66.358 30.196,66.358 L36.899,66.358 L36.899,69.615 C36.899,70.406 37.546,71.053 38.337,71.053 L39.032,71.053 C39.823,71.053 40.47,70.406 40.47,69.615 L40.47,66.358 L44.466,66.358 L44.466,69.615 C44.466,70.406 45.113,71.053 45.904,71.053 L46.599,71.053 C47.39,71.053 48.037,70.406 48.037,69.615 L48.037,66.358 L52.894,66.358 L52.894,69.615 C52.894,70.406 53.541,71.053 54.332,71.053 L55.027,71.053 C55.818,71.053 56.465,70.406 56.465,69.615 L56.465,66.358 L60.461,66.358 L60.461,69.615 C60.461,70.406 61.108,71.053 61.899,71.053 L62.594,71.053 C63.385,71.053 64.032,70.406 64.032,69.615 L64.032,66.358 L69.961,66.358 C71.617,66.358 73.148,65.828 74.405,64.935 C75.403,65.217 76.458,65.372 77.544,65.372 C79.639,65.372 81.737,64.831 83.611,63.806 C88.367,61.205 90.925,55.919 89.692,51.237 Z M42.767,65.074 L30.196,65.074 C26.65,65.074 23.765,62.196 23.765,58.659 L23.765,45.904 L38.602,45.904 C40.899,45.904 42.767,47.772 42.767,50.069 L42.767,65.074 L42.767,65.074 Z" id="Shape" fill="#000000" fill-rule="nonzero"></path>
            </g>
        </g>
    </g>
</svg>
